<?xml version="1.0" encoding="UTF-8" standalone="no"?>
<!-- Generator: Adobe Illustrator 21.0.0, SVG Export Plug-In . SVG Version: 6.00 Build 0)  -->

<svg
   version="1.1"
   id="Layer_1"
   x="0px"
   y="0px"
   viewBox="0 0 1378.1 1417.3"
   style="enable-background:new 0 0 1378.1 1417.3;"
   xml:space="preserve"
   sodipodi:docname="icon.svg"
   inkscape:version="1.4.2 (f4327f4, 2025-05-13)"
   xmlns:inkscape="http://www.inkscape.org/namespaces/inkscape"
   xmlns:sodipodi="http://sodipodi.sourceforge.net/DTD/sodipodi-0.dtd"
   xmlns="http://www.w3.org/2000/svg"
   xmlns:svg="http://www.w3.org/2000/svg"><defs
   id="defs81" /><sodipodi:namedview
   id="namedview81"
   pagecolor="#ffffff"
   bordercolor="#000000"
   borderopacity="0.25"
   inkscape:showpageshadow="2"
   inkscape:pageopacity="0.0"
   inkscape:pagecheckerboard="0"
   inkscape:deskcolor="#d1d1d1"
   inkscape:zoom="0.56939249"
   inkscape:cx="688.45306"
   inkscape:cy="708.65002"
   inkscape:window-width="1920"
   inkscape:window-height="1009"
   inkscape:window-x="-8"
   inkscape:window-y="-8"
   inkscape:window-maximized="1"
   inkscape:current-layer="Layer_1" />
<g
   id="g81"
   style="fill:#000000;fill-opacity:1">
	<path
   d="M1140.7,660.2c0-251.5-203.9-455.3-455.3-455.3S230.1,408.7,230.1,660.2c0,251.4,203.9,455.3,455.3,455.3   S1140.7,911.6,1140.7,660.2z M278.1,660.2c0-225,182.4-407.4,407.4-407.4s407.4,182.4,407.4,407.4c0,225-182.4,407.4-407.4,407.4   S278.1,885.1,278.1,660.2z"
   id="path1"
   style="fill:#000000;fill-opacity:1" />
	
	<path
   id="path3"
   d="m 761.96094,654.73047 c -0.56061,0.0495 -1.10598,0.21569 -1.65821,0.32422 -0.13446,0.0546 -0.26666,0.11175 -0.39843,0.16797 0.77272,-0.0771 1.54133,-0.18592 2.30273,-0.33594 0.003,-5.9e-4 0.005,-0.001 0.008,-0.002 5.1e-4,-2.4e-4 0.003,3.6e-4 0.004,0 v -0.002 h 0.002 l 0.002,-0.002 0.002,-0.002 0.002,-0.002 v -0.002 l 0.002,-0.002 v -0.002 c 10e-6,-8.1e-4 10e-5,-0.003 0,-0.004 l -0.002,-0.002 c -0.018,-0.0473 -0.18833,-0.14193 -0.26562,-0.13476 z"
   style="fill:#000000;fill-opacity:1" />
	
	
	
	
	
	
	
	
	
	
	
	
	
	
	
	<ellipse
   transform="matrix(0.2823 -0.9593 0.9593 0.2823 -229.4751 1352.752)"
   cx="789.3"
   cy="829.7"
   rx="17.7"
   ry="17.7"
   id="ellipse15"
   style="fill:#000000;fill-opacity:1" />
	
		<ellipse
   transform="matrix(0.998 -6.284212e-02 6.284212e-02 0.998 -47.5557 54.6366)"
   cx="844.8"
   cy="783.3"
   rx="17.7"
   ry="17.7"
   id="ellipse16"
   style="fill:#000000;fill-opacity:1" />
	<ellipse
   transform="matrix(0.9163 -0.4004 0.4004 0.9163 -214.875 413.0487)"
   cx="881"
   cy="720.7"
   rx="17.7"
   ry="17.7"
   id="ellipse17"
   style="fill:#000000;fill-opacity:1" />
	<ellipse
   transform="matrix(0.7241 -0.6897 0.6897 0.7241 -201.4302 795.4924)"
   cx="893.6"
   cy="649.5"
   rx="17.7"
   ry="17.7"
   id="ellipse18"
   style="fill:#000000;fill-opacity:1" />
	
	
	<ellipse
   transform="matrix(0.9719 -0.2352 0.2352 0.9719 -88.1757 198.8969)"
   cx="789.7"
   cy="469.1"
   rx="17.7"
   ry="17.7"
   id="ellipse19"
   style="fill:#000000;fill-opacity:1" />
	<ellipse
   transform="matrix(0.8329 -0.5534 0.5534 0.8329 -125.2689 473.718)"
   cx="721.8"
   cy="444.3"
   rx="17.7"
   ry="17.7"
   id="ellipse20"
   style="fill:#000000;fill-opacity:1" />
	<ellipse
   transform="matrix(0.5934 -0.8049 0.8049 0.5934 -93.4613 703.4249)"
   cx="649.5"
   cy="444.2"
   rx="17.7"
   ry="17.7"
   id="ellipse21"
   style="fill:#000000;fill-opacity:1" />
	<ellipse
   transform="matrix(0.2823 -0.9593 0.9593 0.2823 -32.4465 894.3832)"
   cx="581.5"
   cy="468.9"
   rx="17.7"
   ry="17.7"
   id="ellipse22"
   style="fill:#000000;fill-opacity:1" />
	
	
	<ellipse
   transform="matrix(0.7241 -0.6897 0.6897 0.7241 -315.9987 508.1742)"
   cx="477.2"
   cy="649.1"
   rx="17.7"
   ry="17.7"
   id="ellipse23"
   style="fill:#000000;fill-opacity:1" />
	<ellipse
   transform="matrix(0.4446 -0.8957 0.8957 0.4446 -373.2254 838.7059)"
   cx="489.7"
   cy="720.3"
   rx="17.7"
   ry="17.7"
   id="ellipse24"
   style="fill:#000000;fill-opacity:1" />
	<ellipse
   transform="matrix(0.1114 -0.9938 0.9938 0.1114 -310.8964 1218.2493)"
   cx="525.8"
   cy="783"
   rx="17.7"
   ry="17.7"
   id="ellipse25"
   style="fill:#000000;fill-opacity:1" />
	<ellipse
   transform="matrix(0.9719 -0.2352 0.2352 0.9719 -178.7947 159.9463)"
   cx="581.1"
   cy="829.5"
   rx="17.7"
   ry="17.7"
   id="ellipse26"
   style="fill:#000000;fill-opacity:1" />
	
	
	
	<ellipse
   transform="matrix(0.5934 -0.8049 0.8049 0.5934 -23.7783 704.5286)"
   cx="685.4"
   cy="375.8"
   rx="17.7"
   ry="17.7"
   id="ellipse28"
   style="fill:#000000;fill-opacity:1" />
	<ellipse
   transform="matrix(0.3648 -0.9311 0.9311 0.3648 31.5011 816.528)"
   cx="614.2"
   cy="385.2"
   rx="17.7"
   ry="17.7"
   id="ellipse29"
   style="fill:#000000;fill-opacity:1" />
	<ellipse
   transform="matrix(0.1114 -0.9938 0.9938 0.1114 76.7056 911.1187)"
   cx="547.8"
   cy="412.7"
   rx="17.7"
   ry="17.7"
   id="ellipse30"
   style="fill:#000000;fill-opacity:1" />
	<ellipse
   transform="matrix(0.9887 -0.1496 0.1496 0.9887 -62.7481 78.5597)"
   cx="490.9"
   cy="456.4"
   rx="17.7"
   ry="17.7"
   id="ellipse31"
   style="fill:#000000;fill-opacity:1" />
	<ellipse
   transform="matrix(0.9163 -0.4004 0.4004 0.9163 -168.1535 221.9738)"
   cx="447.1"
   cy="513.4"
   rx="17.7"
   ry="17.7"
   id="ellipse32"
   style="fill:#000000;fill-opacity:1" />
	<ellipse
   transform="matrix(0.7815 -0.6239 0.6239 0.7815 -270.0271 388.4978)"
   cx="419.6"
   cy="579.8"
   rx="17.7"
   ry="17.7"
   id="ellipse33"
   style="fill:#000000;fill-opacity:1" />
	<ellipse
   transform="matrix(0.5934 -0.8049 0.8049 0.5934 -357.1694 594.9246)"
   cx="410.3"
   cy="651"
   rx="17.7"
   ry="17.7"
   id="ellipse34"
   style="fill:#000000;fill-opacity:1" />
	<ellipse
   transform="matrix(0.3648 -0.9311 0.9311 0.3648 -405.8844 849.4264)"
   cx="419.6"
   cy="722.2"
   rx="17.7"
   ry="17.7"
   id="ellipse35"
   style="fill:#000000;fill-opacity:1" />
	<ellipse
   transform="matrix(0.1114 -0.9938 0.9938 0.1114 -386.3542 1145.0416)"
   cx="447.1"
   cy="788.6"
   rx="17.7"
   ry="17.7"
   id="ellipse36"
   style="fill:#000000;fill-opacity:1" />
	<ellipse
   transform="matrix(0.9887 -0.1496 0.1496 0.9887 -120.9599 82.9373)"
   cx="490.9"
   cy="845.6"
   rx="17.7"
   ry="17.7"
   id="ellipse37"
   style="fill:#000000;fill-opacity:1" />
	<ellipse
   transform="matrix(0.9163 -0.4004 0.4004 0.9163 -310.2367 293.7503)"
   cx="547.8"
   cy="889.3"
   rx="17.7"
   ry="17.7"
   id="ellipse38"
   style="fill:#000000;fill-opacity:1" />
	<ellipse
   transform="matrix(0.7815 -0.6239 0.6239 0.7815 -437.7846 583.5445)"
   cx="614.2"
   cy="916.8"
   rx="17.7"
   ry="17.7"
   id="ellipse39"
   style="fill:#000000;fill-opacity:1" />
	<ellipse
   transform="matrix(0.5934 -0.8049 0.8049 0.5934 -466.7735 928.3157)"
   cx="685.4"
   cy="926.2"
   rx="17.7"
   ry="17.7"
   id="ellipse40"
   style="fill:#000000;fill-opacity:1" />
	<ellipse
   transform="matrix(0.3648 -0.9311 0.9311 0.3648 -372.986 1286.8119)"
   cx="756.7"
   cy="916.8"
   rx="17.7"
   ry="17.7"
   id="ellipse41"
   style="fill:#000000;fill-opacity:1" />
	<ellipse
   transform="matrix(0.1114 -0.9938 0.9938 0.1114 -152.4313 1608.1016)"
   cx="823"
   cy="889.3"
   rx="17.7"
   ry="17.7"
   id="ellipse42"
   style="fill:#000000;fill-opacity:1" />
	<ellipse
   transform="matrix(0.9887 -0.1496 0.1496 0.9887 -116.5816 141.15)"
   cx="880"
   cy="845.6"
   rx="17.7"
   ry="17.7"
   id="ellipse43"
   style="fill:#000000;fill-opacity:1" />
	<ellipse
   transform="matrix(0.9163 -0.4004 0.4004 0.9163 -238.4611 435.8341)"
   cx="923.7"
   cy="788.6"
   rx="17.7"
   ry="17.7"
   id="ellipse44"
   style="fill:#000000;fill-opacity:1" />
	<ellipse
   transform="matrix(0.7815 -0.6239 0.6239 0.7815 -242.7387 751.3018)"
   cx="951.2"
   cy="722.2"
   rx="17.7"
   ry="17.7"
   id="ellipse45"
   style="fill:#000000;fill-opacity:1" />
	<ellipse
   transform="matrix(0.5934 -0.8049 0.8049 0.5934 -133.3824 1037.9197)"
   cx="960.6"
   cy="651"
   rx="17.7"
   ry="17.7"
   id="ellipse46"
   style="fill:#000000;fill-opacity:1" />
	<ellipse
   transform="matrix(0.3648 -0.9311 0.9311 0.3648 64.3991 1253.913)"
   cx="951.2"
   cy="579.8"
   rx="17.7"
   ry="17.7"
   id="ellipse47"
   style="fill:#000000;fill-opacity:1" />
	<ellipse
   transform="matrix(0.1114 -0.9938 0.9938 0.1114 310.6286 1374.1786)"
   cx="923.7"
   cy="513.4"
   rx="17.7"
   ry="17.7"
   id="ellipse48"
   style="fill:#000000;fill-opacity:1" />
	<ellipse
   transform="matrix(0.9887 -0.1496 0.1496 0.9887 -58.3696 136.7731)"
   cx="880"
   cy="456.4"
   rx="17.7"
   ry="17.7"
   id="ellipse49"
   style="fill:#000000;fill-opacity:1" />
	<ellipse
   transform="matrix(0.9163 -0.4004 0.4004 0.9163 -96.3778 364.0559)"
   cx="823"
   cy="412.7"
   rx="17.7"
   ry="17.7"
   id="ellipse50"
   style="fill:#000000;fill-opacity:1" />
	<ellipse
   transform="matrix(0.7815 -0.6239 0.6239 0.7815 -74.9814 556.2559)"
   cx="756.7"
   cy="385.2"
   rx="17.7"
   ry="17.7"
   id="ellipse51"
   style="fill:#000000;fill-opacity:1" />
	<ellipse
   transform="matrix(0.5934 -0.8049 0.8049 0.5934 41.3552 708.3786)"
   cx="721.8"
   cy="313.3"
   rx="17.7"
   ry="17.7"
   id="ellipse52"
   style="fill:#000000;fill-opacity:1" />
	<ellipse
   transform="matrix(0.4131 -0.9107 0.9107 0.4131 96.74 776.2885)"
   cx="650.6"
   cy="313.1"
   rx="17.7"
   ry="17.7"
   id="ellipse53"
   style="fill:#000000;fill-opacity:1" />
	<ellipse
   transform="matrix(0.2147 -0.9767 0.9767 0.2147 136.1364 824.7773)"
   cx="581"
   cy="327.7"
   rx="17.7"
   ry="17.7"
   id="ellipse54"
   style="fill:#000000;fill-opacity:1" />
	<ellipse
   transform="matrix(6.930434e-03 -1 1 6.930434e-03 155.7425 869.903)"
   cx="515.8"
   cy="356.5"
   rx="17.7"
   ry="17.7"
   id="ellipse55"
   style="fill:#000000;fill-opacity:1" />
	<ellipse
   transform="matrix(0.9796 -0.2011 0.2011 0.9796 -70.7368 100.2863)"
   cx="458.2"
   cy="398.3"
   rx="17.7"
   ry="17.7"
   id="ellipse56"
   style="fill:#000000;fill-opacity:1" />
	<ellipse
   transform="matrix(0.9163 -0.4004 0.4004 0.9163 -146.2634 202.0553)"
   cx="410.4"
   cy="451"
   rx="17.7"
   ry="17.7"
   id="ellipse57"
   style="fill:#000000;fill-opacity:1" />
	<ellipse
   transform="matrix(0.8131 -0.5822 0.5822 0.8131 -228.3912 313.9371)"
   cx="374.7"
   cy="512.6"
   rx="17.7"
   ry="17.7"
   id="ellipse58"
   style="fill:#000000;fill-opacity:1" />
	<ellipse
   transform="matrix(0.6743 -0.7385 0.7385 0.6743 -313.6999 449.3363)"
   cx="352.5"
   cy="580.3"
   rx="17.7"
   ry="17.7"
   id="ellipse59"
   style="fill:#000000;fill-opacity:1" />
	<ellipse
   transform="matrix(0.506 -0.8625 0.8625 0.506 -391.1745 619.1181)"
   cx="344.9"
   cy="651.1"
   rx="17.7"
   ry="17.7"
   id="ellipse60"
   style="fill:#000000;fill-opacity:1" />
	<ellipse
   transform="matrix(0.3156 -0.9489 0.9489 0.3156 -443.9464 828.2275)"
   cx="352.2"
   cy="721.9"
   rx="17.7"
   ry="17.7"
   id="ellipse61"
   style="fill:#000000;fill-opacity:1" />
	<ellipse
   transform="matrix(0.1114 -0.9938 0.9938 0.1114 -452.3623 1073.3409)"
   cx="374"
   cy="789.6"
   rx="17.7"
   ry="17.7"
   id="ellipse62"
   style="fill:#000000;fill-opacity:1" />
	
		<ellipse
   transform="matrix(0.9952 -9.763416e-02 9.763416e-02 0.9952 -81.1657 44.0462)"
   cx="409.5"
   cy="851.4"
   rx="17.7"
   ry="17.7"
   id="ellipse63"
   style="fill:#000000;fill-opacity:1" />
	<ellipse
   transform="matrix(0.9532 -0.3024 0.3024 0.9532 -252.1011 180.5479)"
   cx="457"
   cy="904.4"
   rx="17.7"
   ry="17.7"
   id="ellipse64"
   style="fill:#000000;fill-opacity:1" />
	<ellipse
   transform="matrix(0.8695 -0.494 0.494 0.8695 -400.3299 377.6761)"
   cx="514.5"
   cy="946.4"
   rx="17.7"
   ry="17.7"
   id="ellipse65"
   style="fill:#000000;fill-opacity:1" />
	<ellipse
   transform="matrix(0.7478 -0.664 0.664 0.7478 -501.5121 630.7833)"
   cx="579.5"
   cy="975.5"
   rx="17.7"
   ry="17.7"
   id="ellipse66"
   style="fill:#000000;fill-opacity:1" />
	<ellipse
   transform="matrix(0.5934 -0.8049 0.8049 0.5934 -533.2951 925.1669)"
   cx="649.1"
   cy="990.4"
   rx="17.7"
   ry="17.7"
   id="ellipse67"
   style="fill:#000000;fill-opacity:1" />
	<ellipse
   transform="matrix(0.4131 -0.9107 0.9107 0.4131 -479.3903 1237.3481)"
   cx="720.2"
   cy="990.6"
   rx="17.7"
   ry="17.7"
   id="ellipse68"
   style="fill:#000000;fill-opacity:1" />
	<ellipse
   transform="matrix(0.2147 -0.9767 0.9767 0.2147 -332.86 1537.9207)"
   cx="789.9"
   cy="975.9"
   rx="17.7"
   ry="17.7"
   id="ellipse69"
   style="fill:#000000;fill-opacity:1" />
	<ellipse
   transform="matrix(6.930434e-03 -1 1 6.930434e-03 -98.0283 1795.5721)"
   cx="855"
   cy="947.1"
   rx="17.7"
   ry="17.7"
   id="ellipse70"
   style="fill:#000000;fill-opacity:1" />
	<ellipse
   transform="matrix(0.9796 -0.2011 0.2011 0.9796 -163.4559 202.073)"
   cx="912.7"
   cy="905.4"
   rx="17.7"
   ry="17.7"
   id="ellipse71"
   style="fill:#000000;fill-opacity:1" />
	<ellipse
   transform="matrix(0.9163 -0.4004 0.4004 0.9163 -261.0411 455.8951)"
   cx="960.5"
   cy="852.6"
   rx="17.7"
   ry="17.7"
   id="ellipse72"
   style="fill:#000000;fill-opacity:1" />
	<ellipse
   transform="matrix(0.8131 -0.5822 0.5822 0.8131 -274.3109 727.8292)"
   cx="996.2"
   cy="791.1"
   rx="17.7"
   ry="17.7"
   id="ellipse73"
   style="fill:#000000;fill-opacity:1" />
	<ellipse
   transform="matrix(0.6743 -0.7385 0.7385 0.6743 -202.5158 987.6854)"
   cx="1018.4"
   cy="723.4"
   rx="17.7"
   ry="17.7"
   id="ellipse74"
   style="fill:#000000;fill-opacity:1" />
	<ellipse
   transform="matrix(0.506 -0.8625 0.8625 0.506 -56.0803 1207.337)"
   cx="1026"
   cy="652.6"
   rx="17.7"
   ry="17.7"
   id="ellipse75"
   style="fill:#000000;fill-opacity:1" />
	<ellipse
   transform="matrix(0.3156 -0.9489 0.9489 0.3156 145.1128 1364.811)"
   cx="1018.7"
   cy="581.8"
   rx="17.7"
   ry="17.7"
   id="ellipse76"
   style="fill:#000000;fill-opacity:1" />
	<ellipse
   transform="matrix(0.1114 -0.9938 0.9938 0.1114 374.9244 1447.4128)"
   cx="996.8"
   cy="514.1"
   rx="17.7"
   ry="17.7"
   id="ellipse77"
   style="fill:#000000;fill-opacity:1" />
	
		<ellipse
   transform="matrix(0.9952 -9.763245e-02 9.763245e-02 0.9952 -39.5679 96.0237)"
   cx="961.4"
   cy="452.3"
   rx="17.7"
   ry="17.7"
   id="ellipse78"
   style="fill:#000000;fill-opacity:1" />
	<ellipse
   transform="matrix(0.9532 -0.3024 0.3024 0.9532 -77.9646 295.0705)"
   cx="913.9"
   cy="399.3"
   rx="17.7"
   ry="17.7"
   id="ellipse79"
   style="fill:#000000;fill-opacity:1" />
	<ellipse
   transform="matrix(0.8695 -0.494 0.494 0.8695 -64.7306 469.6802)"
   cx="856.4"
   cy="357.3"
   rx="17.7"
   ry="17.7"
   id="ellipse80"
   style="fill:#000000;fill-opacity:1" />
	<ellipse
   transform="matrix(0.7478 -0.664 0.664 0.7478 -18.3041 608.2566)"
   cx="791.4"
   cy="328.2"
   rx="17.7"
   ry="17.7"
   id="ellipse81"
   style="fill:#000000;fill-opacity:1" />
	<path
   id="path81"
   d="M 689,0 C 309.1,0 0,309.1 0,689 c 0,133.6 38.299217,263.19926 110.69922,374.6992 70.6,108.7 169.8,195.0008 287,249.8008 1.52192,0.6784 3.12574,1.4654 4.79101,2.3477 -4.77406,-16.3443 -7.82022,-15.6776 4.44532,-17.1661 1.97209,-0.1727 3.9436,-0.3416 5.91601,-0.5 -50.03107,-22.1532 -96.28268,-49.5897 -138.25195,-81.582 -57.8,-45.5 -108.09922,-100.2988 -148.69922,-162.7988 C 55.300363,945.30074 18.099609,819.1 18.099609,689 c 0,-370 301.000001,-671 671.000001,-671 369.99999,0 670.99999,301 670.99999,671 -0.1,220.3 -108.6988,424.3996 -284.7988,548.5996 -37.5864,25.7898 -77.95364,47.8722 -120.61525,65.9258 0.86793,0.2253 1.74176,0.4312 2.61523,0.6348 9.26183,2.1585 16.17889,5.7994 20.94336,10.1386 C 1221.3561,1201.7872 1378.0996,956.87562 1378.0996,688.69922 1378.0996,309.09922 1069,0 689,0 Z m -3.59961,156.09961 c -283.8,0 -514.80078,230.90078 -514.80078,514.80078 0,186.08789 100.38035,357.38401 262.36523,448.67971 0.95434,-4.3345 1.76269,-7.0358 3.1875,-8.4317 -158.3575,-89.8525 -256.35156,-257.84724 -256.35156,-440.04879 0,-278.9 226.89922,-505.69922 505.69922,-505.69922 278.8,0 505.6992,226.89922 505.6992,505.69922 0,180.25655 -95.8008,346.44819 -251.08201,437.05079 1.3822,0.3141 2.74439,0.6859 4.03125,1.2676 2.10515,0.9516 3.95376,2.0718 5.57226,3.3398 154.9797,-92.8849 250.4785,-260.34173 250.4785,-441.85741 0,-283.8 -230.89881,-514.80078 -514.79881,-514.80078 z"
   style="fill:#000000;fill-opacity:1" />
</g>
<path
   style="fill:#060404;fill-opacity:1"
   d="m 428.5269,1111.7112 c 525.12109,-7.025 528.6336,-7.025 528.6336,-7.025"
   id="path88" /><ellipse
   style="fill:none;fill-opacity:1;stroke:#000000;stroke-width:13.7066;stroke-dasharray:none;stroke-opacity:1"
   id="path89"
   cx="686.69684"
   cy="673.5249"
   rx="512.1427"
   ry="511.26459" /><ellipse
   style="fill:none;fill-opacity:1;stroke:#000000;stroke-width:18.1979;stroke-dasharray:none;stroke-opacity:1"
   id="path89-9"
   cx="689.26801"
   cy="690.1839"
   rx="681.13214"
   ry="677.61969" /><circle
   style="fill:#000000;fill-opacity:1;stroke:#000000;stroke-width:1.8;stroke-dasharray:none;stroke-opacity:1"
   id="path92"
   cx="522.48669"
   cy="515.46167"
   r="16.684448" /><circle
   style="fill:#000000;fill-opacity:1;stroke:#000000;stroke-width:1.8;stroke-dasharray:none;stroke-opacity:1"
   id="path92-8"
   cx="486.67804"
   cy="573.90332"
   r="16.684448" /><circle
   style="fill:#000000;fill-opacity:1;stroke:#000000;stroke-width:1.8;stroke-dasharray:none;stroke-opacity:1"
   id="path92-8-2"
   cx="655.54095"
   cy="855.3855"
   r="16.684448" /><circle
   style="fill:#000000;fill-opacity:1;stroke:#000000;stroke-width:1.8;stroke-dasharray:none;stroke-opacity:1"
   id="path92-8-5"
   cx="730.83478"
   cy="853.80316"
   r="16.684448" /><circle
   style="fill:#000000;fill-opacity:1;stroke:#000000;stroke-width:1.8;stroke-dasharray:none;stroke-opacity:1"
   id="path92-8-1"
   cx="848.74121"
   cy="521.13922"
   r="16.684448" /><circle
   style="fill:#000000;fill-opacity:1;stroke:#000000;stroke-width:1.8;stroke-dasharray:none;stroke-opacity:1"
   id="path92-8-11"
   cx="879.41583"
   cy="577.83478"
   r="16.684448" /></svg>
