<?xml version="1.0" standalone="no"?>
<!DOCTYPE svg PUBLIC "-//W3C//DTD SVG 20010904//EN"
 "http://www.w3.org/TR/2001/REC-SVG-20010904/DTD/svg10.dtd">
<svg version="1.0" xmlns="http://www.w3.org/2000/svg"
 width="250.000000pt" height="90.000000pt" viewBox="0 0 250.000000 90.000000"
 preserveAspectRatio="xMidYMid meet">

<g transform="translate(0.000000,90.000000) scale(0.100000,-0.100000)"
fill="#000000" stroke="none">
<path d="M30 440 l0 -300 60 0 60 0 2 196 3 196 119 -146 c65 -80 122 -146
127 -146 4 0 60 65 123 146 l116 145 0 -195 0 -196 65 0 65 0 0 300 0 300 -55
0 -54 0 -83 -102 c-45 -57 -104 -129 -130 -160 l-47 -58 -133 159 -133 160
-52 0 -53 1 0 -300z"/>
<path d="M1367 722 c-37 -40 -11 -102 42 -102 57 0 84 50 50 93 -24 32 -68 36
-92 9z"/>
<path d="M970 637 c-19 -6 -58 -34 -87 -62 -61 -60 -89 -134 -78 -210 4 -25 9
-45 11 -45 2 0 26 16 54 36 43 31 50 40 50 70 0 69 96 135 170 117 40 -9 42
-13 15 -35 -24 -19 -36 -46 -14 -32 6 4 50 12 97 18 47 6 87 16 89 23 7 20
-60 85 -112 109 -55 26 -134 30 -195 11z"/>
<path d="M1635 606 c-42 -18 -102 -88 -114 -133 -14 -49 -14 -137 0 -186 13
-47 72 -115 116 -134 50 -20 152 -17 191 7 26 16 32 17 32 5 0 -11 13 -15 55
-15 l55 0 0 230 0 230 -55 0 c-42 0 -55 -3 -55 -15 0 -12 -6 -12 -37 5 -44 23
-141 27 -188 6z m186 -135 c53 -57 45 -165 -14 -201 -109 -67 -215 49 -162
176 28 67 124 81 176 25z"/>
<path d="M2173 600 c-27 -16 -33 -17 -33 -5 0 12 -14 15 -60 15 l-60 0 0 -230
0 -230 59 0 59 0 4 155 c3 150 4 155 28 180 27 26 74 35 117 21 33 -11 43 -58
43 -212 l0 -144 61 0 60 0 -3 184 c-3 205 -6 215 -78 264 -45 30 -150 31 -197
2z"/>
<path d="M1350 380 l0 -230 60 0 60 0 0 230 0 230 -60 0 -60 0 0 -230z"/>
<path d="M1133 475 c-72 -16 -93 -26 -152 -74 -24 -20 -51 -35 -60 -33 -20 3
-91 -54 -91 -74 0 -22 70 -93 113 -116 88 -44 203 -31 280 33 44 36 87 115 87
159 0 30 -1 30 -54 30 -52 0 -55 -1 -61 -29 -8 -40 -75 -98 -120 -107 -69 -13
-58 9 50 107 59 52 110 96 116 97 5 2 9 8 9 13 0 12 -42 10 -117 -6z"/>
</g>
</svg>
